<svg width="83" height="83" viewBox="0 0 83 83" fill="none" xmlns="http://www.w3.org/2000/svg">
<path d="M41.5 83C64.3818 83 83 64.3836 83 41.5C83 30.4057 78.6857 19.9827 70.8511 12.1489C63.0158 4.31449 52.5943 0 41.5 0C18.6164 0 0 18.6164 0 41.5C0 52.5943 4.31427 63.0173 12.1489 70.8511C19.9825 78.6855 30.4057 83 41.5 83ZM41.5 76.0833C33.4183 76.0833 25.7646 73.3361 19.6051 68.2852L68.2852 19.6051C73.3359 25.7646 76.0833 33.4183 76.0833 41.5C76.0833 60.569 60.569 76.0833 41.5 76.0833ZM41.5 6.91667C49.5802 6.91667 57.2354 9.66388 63.3934 14.7148L14.7146 63.3949C9.6641 57.2354 6.91667 49.5817 6.91667 41.5C6.91667 22.431 22.431 6.91667 41.5 6.91667Z" fill="#A7ACAF"/>
</svg>
