<svg width="24" height="25" viewBox="0 0 24 25" fill="none" xmlns="http://www.w3.org/2000/svg">
<path d="M17.5355 16.5378C17.7269 16.6587 17.9237 16.7386 18.0628 16.8757C19.8748 18.6646 21.6814 20.4587 23.4825 22.2577C23.7269 22.4857 23.8949 22.7827 23.9637 23.1086C24.0325 23.4345 23.9989 23.7735 23.8674 24.0798C23.65 24.6087 23.1585 24.8947 22.3866 24.8041C22.0393 24.7436 21.7192 24.5781 21.4701 24.3302C19.6212 22.5312 17.7878 20.7127 15.97 18.8748C15.6634 18.5661 15.4448 18.5067 15.0524 18.7571C13.2987 19.8743 11.3624 20.4281 9.28258 20.2769C5.74265 20.019 3.09205 18.2886 1.27968 15.276C0.204436 13.4884 -0.161951 11.5152 0.0641871 9.48483C0.280859 7.48869 1.11661 5.60864 2.45595 4.10446C3.79529 2.60028 5.57211 1.54623 7.54088 1.08796C12.0897 0.0355155 16.7234 2.15119 18.7325 6.49913C19.4862 8.11889 19.7734 9.91423 19.5624 11.6861C19.3513 13.458 18.6501 15.1373 17.5366 16.5378H17.5355ZM9.79139 3.00826C5.79809 2.71142 2.07225 6.45379 2.119 10.5556C2.16792 14.7859 5.63393 18.2131 9.7903 18.1937C14.2163 18.1721 17.4833 14.7395 17.4931 10.5556C17.504 6.19473 13.7956 2.76431 9.79139 3.00826Z" fill="#E74017"/>
</svg>
