<svg width="83" height="83" viewBox="0 0 83 83" fill="none" xmlns="http://www.w3.org/2000/svg">
<g id="Frame" clip-path="url(#clip0_25_964)">
<g id="Group">
<path id="Vector" d="M22.9169 18.8886C21.7199 17.6906 19.7779 17.6906 18.5808 18.8886C14.1364 23.333 11.952 29.5243 12.5868 35.876C12.7452 37.4584 14.0782 38.6379 15.635 38.6379C15.7373 38.6379 15.8404 38.6327 15.9427 38.6225C17.6283 38.4539 18.8579 36.9502 18.6893 35.2657C18.2375 30.7518 19.779 26.3627 22.9169 23.2245C24.1149 22.0277 24.1149 20.0855 22.9169 18.8886Z" fill="#A7ACAF"/>
<path id="Vector_2" d="M35.0604 0C15.728 0 0 15.728 0 35.0604C0 54.3927 15.728 70.1207 35.0604 70.1207C54.3927 70.1207 70.1207 54.3927 70.1207 35.0604C70.1207 15.728 54.3926 0 35.0604 0ZM35.0604 63.9876C19.1095 63.9876 6.13308 51.0113 6.13308 35.0604C6.13308 19.1095 19.1095 6.13308 35.0604 6.13308C51.0103 6.13308 63.9876 19.1095 63.9876 35.0604C63.9876 51.0113 51.0113 63.9876 35.0604 63.9876Z" fill="#A7ACAF"/>
<path id="Vector_3" d="M82.1016 77.7655L59.8182 55.4822C58.6202 54.2842 56.6801 54.2842 55.4821 55.4822C54.2841 56.6792 54.2841 58.6213 55.4821 59.8183L77.7655 82.1016C78.0498 82.3868 78.3878 82.613 78.7598 82.7672C79.1319 82.9214 79.5308 83.0005 79.9336 83C80.7186 83 81.5026 82.7006 82.1016 82.1016C83.2994 80.9045 83.2994 78.9625 82.1016 77.7655Z" fill="#A7ACAF"/>
</g>
</g>
<defs>
<clipPath id="clip0_25_964">
<rect width="83" height="83" fill="white"/>
</clipPath>
</defs>
</svg>
