<svg width="61" height="61" viewBox="0 0 61 61" fill="none" xmlns="http://www.w3.org/2000/svg">
<g id="user2" clip-path="url(#clip0_110_11791)">
<path id="Vector" fill-rule="evenodd" clip-rule="evenodd" d="M49.7906 46.6754L40.2116 43.2794L39.3986 40.0184C41.9606 37.4834 43.7156 33.9974 44.2346 30.4244C47.6246 30.0224 46.7546 28.8044 46.9436 27.2774L47.5706 22.2794C47.7026 21.2234 47.3786 20.1554 46.6766 19.3544C46.2686 18.8864 45.7496 18.5294 45.1766 18.3134L45.4076 13.6064L46.3436 13.5854C47.7506 11.1704 48.9176 8.60243 46.4786 4.87643C44.6036 2.01443 41.4176 0.56543 37.0076 0.56543C35.2676 0.56543 31.2626 0.56543 28.4246 3.06743C16.8836 3.28943 15.4316 8.23643 15.4316 13.0634C15.4316 14.1854 18.1346 16.7114 15.8846 18.2384C15.2426 18.4394 14.6606 21.0554 14.2046 19.3334C13.4936 20.1404 13.1636 21.2144 13.2956 22.2794L13.9196 27.2804C14.1236 28.9094 15.3626 30.1934 16.9286 30.4994C17.4446 33.9344 19.1096 37.3094 22.3346 41.9354L20.6546 43.2854L11.0786 46.7054C4.80857 47.2424 0.43457 52.8494 0.43457 59.3144C0.43457 60.0014 0.99257 60.5624 1.68257 60.5624H59.1836C59.8736 60.5624 60.4316 59.9984 60.4316 59.3084C60.4316 52.8494 56.0576 47.2424 49.7906 46.6754Z" fill="#2A2F33"/>
</g>
<defs>
<clipPath id="clip0_110_11791">
<rect width="60" height="60" fill="white" transform="translate(0.43457 0.56543)"/>
</clipPath>
</defs>
</svg>
