<svg width="83" height="110" viewBox="0 0 83 110" fill="none" xmlns="http://www.w3.org/2000/svg">
<g id="&#208;&#160;&#208;&#181;&#209;&#129;&#209;&#131;&#209;&#128;&#209;&#129; 1 1" clip-path="url(#clip0_23_1162)">
<g id="&#208;&#161;&#208;&#187;&#208;&#190;&#208;&#185; 2">
<g id="&#208;&#161;&#208;&#187;&#208;&#190;&#208;&#185; 1">
<path id="Vector" d="M1.54144 110C0.372421 109.377 -0.057661 108.415 6.8129e-05 107.08C0.0895482 105.257 6.8129e-05 103.429 0.0289327 101.603C0.0289327 100.245 0.854459 99.3293 2.04945 99.2776C3.24444 99.2259 4.20563 100.17 4.26913 101.545C4.30089 102.226 4.26913 102.906 4.26913 103.587V105.656H56.2628V104.419C56.2628 98.3331 56.2628 92.246 56.2628 86.1581C56.2628 84.0882 56.9845 83.3705 59.0483 83.3677H78.7368V81.9323C78.7368 63.4941 78.7368 45.0541 78.7368 26.6122C78.7196 26.0783 78.7789 25.5447 78.9129 25.0275C79.0641 24.5822 79.3653 24.2025 79.7655 23.9525C80.1657 23.7024 80.6404 23.5975 81.1095 23.6553C81.5781 23.7103 82.0153 23.9182 82.3526 24.2464C82.6899 24.5747 82.9085 25.0048 82.9741 25.4696C82.9977 25.7196 83.0054 25.9708 82.9972 26.2217C82.9972 45.9134 82.9914 65.6061 82.9799 85.2997C82.9548 85.9997 82.6806 86.6681 82.2063 87.1858C74.8824 94.535 67.5316 101.859 60.1538 109.159C59.8651 109.446 59.539 109.719 59.233 110H1.54144ZM60.5868 87.6853V102.2L75.1749 87.6824L60.5868 87.6853Z" fill="#A7ACAF"/>
<path id="Vector_2" d="M78.7428 4.30618H4.28669V5.79612C4.28669 31.6141 4.28669 57.4311 4.28669 83.2471C4.30502 83.7465 4.26629 84.2464 4.17123 84.7371C4.06014 85.2125 3.78304 85.6332 3.38926 85.9245C2.99547 86.2157 2.51056 86.3585 2.02083 86.3275C1.51389 86.296 1.03531 86.084 0.672732 85.7303C0.31015 85.3765 0.0878325 84.9047 0.0464912 84.4012C0.000307938 84.0423 0.0291725 83.6835 0.0291725 83.3246V2.97414C0.0291725 0.599995 0.638214 0 3.03397 0H80.0446C82.3537 0 82.9945 0.622961 82.9945 2.91959C82.9945 4.74541 83.009 6.57124 82.9945 8.39706C82.9801 9.74346 82.1286 10.6621 80.9365 10.6937C79.7444 10.7253 78.8063 9.81236 78.7601 8.49753C78.7139 7.18271 78.7428 5.77603 78.7428 4.30618Z" fill="#A7ACAF"/>
<path id="Vector_3" d="M40.7712 55.2081C50.1175 55.3832 58.1159 57.4703 65.0809 62.7755C65.866 63.3727 66.4086 64.1449 66.068 65.0722C65.8062 65.75 65.2882 66.2991 64.6248 66.6023C64.0735 66.8004 63.1498 66.6023 62.6563 66.2233C58.3804 62.9668 53.3428 60.844 48.0162 60.054C38.0579 58.5182 28.7606 60.0741 20.4967 66.1631C19.2757 67.0616 18.0374 66.9554 17.2696 65.9076C16.5365 64.9114 16.7703 63.6913 17.9018 62.8157C23.1147 58.7966 29.0839 56.5775 35.5669 55.6789C37.5239 55.4062 39.5127 55.3172 40.7712 55.2081Z" fill="#A7ACAF"/>
<path id="Vector_4" d="M25.3315 28.1337C26.9854 26.4859 28.4575 24.9184 30.0537 23.4859C30.5964 23.0151 31.4623 22.5787 32.1118 22.6792C32.7612 22.7797 33.4251 23.483 33.7859 24.0945C34.2218 24.8294 33.8465 25.6304 33.249 26.2333C31.9848 27.5002 30.7157 28.7663 29.4418 30.0313C29.133 30.3184 28.775 30.5796 28.3363 30.9327C29.0348 31.6476 29.5919 32.2303 30.1634 32.8016C31.1015 33.7432 32.0512 34.6705 32.9864 35.615C34.141 36.7633 34.2449 37.9834 33.3212 38.9135C32.3975 39.8437 31.1073 39.726 29.9989 38.6265C28.495 37.1365 27.0085 35.6294 25.4094 34.0332C23.9431 35.503 22.523 36.904 21.1202 38.3394C19.7173 39.7748 18.4733 39.904 17.4803 38.9221C16.4874 37.9403 16.7125 36.703 18.1096 35.3107C19.5066 33.9184 20.9094 32.5346 22.4017 31.0562C20.768 29.4371 19.1747 27.8983 17.6275 26.3165C16.3373 24.9988 16.7616 23.1098 18.4386 22.6419C19.3363 22.3921 20.0551 22.7424 20.6699 23.374L25.3315 28.1337Z" fill="#A7ACAF"/>
<path id="Vector_5" d="M60.4568 31.0303C62.2868 32.7987 63.9205 34.3518 65.5254 35.9451C65.8787 36.2631 66.106 36.6963 66.1664 37.1664C66.2267 37.6365 66.1161 38.1126 65.8545 38.5087C65.6456 38.9138 65.2983 39.2314 64.875 39.4046C64.4517 39.5777 63.9802 39.5949 63.5453 39.4532C63.0401 39.277 62.5855 38.9814 62.2204 38.592C60.705 37.1164 59.2272 35.6006 57.6309 33.9987C56.0434 35.6006 54.5511 37.1365 53.0126 38.6322C52.6435 39.0164 52.1828 39.3018 51.6733 39.4618C51.2353 39.5932 50.7646 39.5655 50.3453 39.3835C49.926 39.2016 49.5854 38.8773 49.3843 38.4685C49.1381 38.0851 49.0345 37.6281 49.0914 37.1767C49.1483 36.7252 49.3623 36.3078 49.6961 35.9968C51.0181 34.6274 52.3747 33.2925 53.7371 31.9777C54.0689 31.7019 54.421 31.4514 54.7907 31.2284C53.0126 29.4657 51.4655 27.9299 49.9126 26.394C49.2862 25.7768 48.9283 25.0648 49.1707 24.172C49.6037 22.5672 51.4799 22.0706 52.773 23.2706C54.1326 24.5481 55.443 25.8801 56.7477 27.215C57.011 27.5605 57.2365 27.9329 57.4202 28.326C59.2762 26.4744 60.8234 24.9299 62.3647 23.3825C62.9882 22.7596 63.7012 22.4093 64.6017 22.6677C66.2181 23.1328 66.6858 24.9844 65.4677 26.2677C64.2496 27.5509 62.8872 28.8514 61.5796 30.149C61.2939 30.4102 60.959 30.6313 60.4568 31.0303Z" fill="#A7ACAF"/>
<path id="Vector_6" d="M82.9856 17.1673C82.9856 17.7245 82.7647 18.2592 82.3707 18.6553C81.9767 19.0514 81.4415 19.277 80.8813 19.2831C80.3171 19.2831 79.7761 19.0601 79.3771 18.6634C78.9782 18.2666 78.754 17.7284 78.754 17.1673C78.754 16.6061 78.9782 16.068 79.3771 15.6712C79.7761 15.2744 80.3171 15.0515 80.8813 15.0515C81.442 15.0561 81.9781 15.2812 82.3724 15.6776C82.7667 16.0741 82.9871 16.6096 82.9856 17.1673Z" fill="#A7ACAF"/>
<path id="Vector_7" d="M2.09555 94.9226C1.54321 94.8944 1.02363 94.6534 0.646947 94.2506C0.270268 93.8479 0.0661051 93.315 0.077742 92.7651C0.0893789 92.2152 0.3159 91.6913 0.709284 91.3047C1.10267 90.9181 1.63199 90.699 2.18503 90.6939C2.46979 90.6913 2.75218 90.7456 3.01546 90.8536C3.27874 90.9615 3.51754 91.121 3.71771 91.3224C3.91788 91.5239 4.07535 91.7633 4.18077 92.0264C4.28619 92.2895 4.33743 92.571 4.33143 92.8541C4.32544 93.1373 4.26235 93.4164 4.14589 93.6749C4.02943 93.9333 3.86198 94.1659 3.65346 94.3588C3.44494 94.5517 3.19961 94.701 2.932 94.7979C2.66439 94.8947 2.37995 94.9371 2.09555 94.9226Z" fill="#A7ACAF"/>
</g>
</g>
</g>
<defs>
<clipPath id="clip0_23_1162">
<rect width="83" height="110" fill="white"/>
</clipPath>
</defs>
</svg>
