<svg width="14" height="11" viewBox="0 0 14 11" fill="none" xmlns="http://www.w3.org/2000/svg">
<path id="Vector" fill-rule="evenodd" clip-rule="evenodd" d="M14 6.67568C14 7.21856 13.6158 7.67728 13.0933 7.81369C13.1493 7.94845 13.1801 8.09476 13.1801 8.24821C13.1801 8.79109 12.7954 9.24981 12.2729 9.70798C12.4045 9.52098 12.7125 9.66728 12.7125 9.82074C12.7125 10.654 12.2309 11 11.1288 11H9.20957C8.00832 11 6.46882 10.6452 5.19309 10.302L4.92204 10.2289V3.92335H5.67079C7.23381 2.88984 7.4567 1.90805 7.62078 1.18641C7.74119 0.657283 8.33873 0 8.77443 0C8.77835 0 8.78171 0 8.78507 0C9.36189 0 9.87151 0.296465 10.1454 0.79369C10.5721 1.56813 10.3963 2.68523 9.66935 3.92335H12.7696C13.5189 3.92335 14 4.92275 14 5.10316C14 5.40457 13.8818 5.68013 13.6864 5.88914C13.8818 6.52883 14 6.37372 14 6.67568ZM2.87067 11H0.409936C0.183127 11 0 10.8245 0 10.6073V3.53008C0 3.42667 0.183127 3.13736 0.409936 3.13736H2.87067C3.54942 3.13736 4.1016 3.66648 4.1016 4.31662V9.82074C4.1016 10.654 3.54942 11 2.87067 11ZM2.0508 8.64148C1.82399 8.64148 1.64031 8.97095 1.64031 9.0342C1.64031 9.25146 1.82399 9.42747 2.0508 9.42747C2.6097 9.42747 2.46074 9.25146 2.46074 9.0342C2.46074 8.97095 2.6097 8.64148 2.0508 8.64148Z" fill="#E74017"/>
</svg>
