<svg width="14" height="14" viewBox="0 0 14 14" fill="none" xmlns="http://www.w3.org/2000/svg">
<g id="eye">
<path id="Vector" fill-rule="evenodd" clip-rule="evenodd" d="M13.4 7.50099C13.2825 7.65853 10.4999 11.3659 6.9446 11.3659C3.39013 11.3659 0.606749 7.65853 0.490013 7.50099C0.379631 7.35136 0.379631 7.1479 0.490013 6.99828C0.606749 6.84074 3.39013 3.13257 6.9446 3.13257C10.4999 3.13257 13.2825 6.84074 13.4 6.99828C13.6033 7.1479 13.6033 7.35136 13.4 7.50099ZM6.9446 3.9844C4.32084 3.9844 2.0576 6.44411 1.38737 7.24924C2.0584 8.16044 4.3264 10.5149 6.9446 10.5149C9.92651 10.5149 11.8316 8.17628 12.5026 7.25003C11.8308 6.4449 9.86298 3.9844 6.9446 3.9844ZM6.9446 9.80474C5.51837 9.80474 4.35816 8.6584 4.35816 7.24924C4.35816 5.84086 5.51837 4.69453 6.9446 4.69453C8.37084 4.69453 9.68828 5.84086 9.68828 7.24924C9.68828 8.6584 8.37084 9.80474 6.9446 9.80474ZM6.9446 5.54636C5.99404 5.54636 5.22057 6.31032 5.22057 7.24924C5.22057 8.18894 5.99404 8.9529 6.9446 8.9529C7.89595 8.9529 8.66943 8.18894 8.66943 7.24924C8.66943 6.31032 7.89595 5.54636 6.9446 5.54636Z" fill="#2A2F33"/>
</g>
</svg>
