<svg width="24" height="22" viewBox="0 0 24 22" fill="none" xmlns="http://www.w3.org/2000/svg">
<path d="M21.2091 12.1309L21.2381 18.7654C21.2381 18.8815 21.2298 18.9892 21.2174 19.1011V19.7724C21.2174 20.6883 20.4756 21.43 19.5598 21.43H18.8967C18.8512 21.43 18.8056 21.3927 18.76 21.4259C18.702 21.3927 18.644 21.43 18.5859 21.43H16.2446C15.3287 21.43 14.587 20.6883 14.587 19.7724V16.1257C14.587 15.3922 13.9944 14.7996 13.2609 14.7996H10.6087C9.87521 14.7996 9.28261 15.3922 9.28261 16.1257V19.7724C9.28261 20.6883 8.54083 21.43 7.625 21.43H5.30849C5.24633 21.43 5.18417 21.4259 5.12201 21.4217C5.07228 21.4259 5.02255 21.43 4.97283 21.43H4.30978C3.39437 21.43 2.65217 20.6883 2.65217 19.7724V15.1311C2.65217 15.0938 2.65342 15.0524 2.6559 15.0151V12.1309H1.32816C0.580992 12.1309 0 11.5465 0 10.8006C0 10.4277 0.124486 10.0961 0.414817 9.80606L11.0397 0.544831C11.3298 0.25417 11.6613 0.212646 11.9514 0.212646C12.2414 0.212646 12.573 0.295693 12.8257 0.503308L17.2391 4.38568V2.86482C17.2391 2.13257 17.8317 1.53873 18.5652 1.53873H19.8913C20.6248 1.53873 21.2174 2.13257 21.2174 2.86482V7.87909L23.4054 9.80606C23.737 10.0961 23.9069 10.4277 23.8613 10.8006C23.8613 11.5465 23.2397 12.1309 22.5352 12.1309H21.2091Z" fill="#A7ACAF"/>
</svg>
