<svg width="18" height="20" viewBox="0 0 18 20" fill="none" xmlns="http://www.w3.org/2000/svg">
<g id="cube 3" clip-path="url(#clip0_1_630)">
<g id="&#208;&#161;&#208;&#187;&#208;&#190;&#208;&#185; 2">
<g id="&#208;&#161;&#208;&#187;&#208;&#190;&#208;&#185; 1">
<path id="Vector" d="M0.003371 9.99859C0.003371 8.51793 0.00786566 7.03728 0 5.55718C0 5.19955 0.133716 4.95779 0.449466 4.7773C3.15713 3.23463 5.86141 1.68638 8.56233 0.132563C8.86123 -0.0395677 9.13091 -0.0462524 9.42924 0.125321C12.1433 1.68508 14.8588 3.24094 17.5758 4.7929C17.8674 4.96001 17.9989 5.19565 17.9983 5.52598C17.9961 8.51515 17.9961 11.5047 17.9983 14.4946C17.9983 14.8093 17.8713 15.0366 17.5949 15.1948C14.8652 16.7546 12.1367 18.3171 9.40958 19.8824C9.12866 20.0457 8.86291 20.0395 8.57919 19.8769C5.86516 18.3171 3.14963 16.7614 0.432611 15.2099C0.132031 15.0372 0 14.8015 0 14.4612C0.00674199 12.9738 0.003371 11.4859 0.003371 9.99859ZM2.03496 5.40343C2.09957 5.44577 2.13216 5.46916 2.16699 5.48922C4.40196 6.77231 6.63637 8.05632 8.87022 9.34126C8.99494 9.41312 9.07304 9.37469 9.17136 9.31842C11.2224 8.14786 13.2722 6.9773 15.3206 5.80674C15.5307 5.68642 15.7392 5.56442 15.9639 5.43463C15.9027 5.3934 15.8639 5.36444 15.8218 5.34048C13.5992 4.06371 11.3779 2.78638 9.15787 1.50849C9.03315 1.43719 8.94831 1.45279 8.83482 1.52019C7.54485 2.26293 6.25264 3.0014 4.95817 3.7356L2.03496 5.40343ZM16.6527 6.57325C16.5808 6.6089 16.5432 6.62506 16.5078 6.64567C14.2713 7.92838 12.0343 9.21054 9.79668 10.4921C9.67925 10.559 9.67307 10.6392 9.67307 10.7467C9.67307 13.1662 9.67307 15.5853 9.67307 18.0041C9.67307 18.0547 9.6815 18.1054 9.68712 18.1712C9.73769 18.1455 9.76915 18.1316 9.79949 18.1155C12.0371 16.8342 14.275 15.553 16.5134 14.2718C16.6319 14.2044 16.6544 14.1258 16.6544 14.0049C16.6518 11.5929 16.6518 9.18065 16.6544 6.76822L16.6527 6.57325ZM1.35851 6.57659C1.35346 6.64567 1.34952 6.67296 1.34952 6.70026C1.34952 9.14017 1.34802 11.5799 1.34503 14.0194C1.34503 14.1704 1.42481 14.2233 1.52931 14.2835C3.72308 15.5413 5.91685 16.7997 8.11062 18.0586C8.17467 18.0954 8.24096 18.1277 8.32074 18.1701C8.32411 18.1143 8.32749 18.0787 8.32749 18.0453C8.32749 15.6057 8.32917 13.1662 8.33254 10.7267C8.33254 10.5763 8.25669 10.5233 8.14995 10.4621C6.1427 9.31787 4.13565 8.17015 2.12878 7.0189C1.88214 6.87685 1.63437 6.73647 1.35851 6.57938V6.57659Z" fill="#A8ACAF"/>
</g>
</g>
</g>
<defs>
<clipPath id="clip0_1_630">
<rect width="18" height="20" fill="white"/>
</clipPath>
</defs>
</svg>
