<svg width="146" height="103" viewBox="0 0 146 103" fill="none" xmlns="http://www.w3.org/2000/svg">
<g id="logo 1 1" clip-path="url(#clip0_1_1595)">
<g id="&#208;&#161;&#208;&#187;&#208;&#190;&#208;&#185; 2">
<g id="&#208;&#161;&#208;&#187;&#208;&#190;&#208;&#185; 1">
<path id="Vector" d="M146 46.566H137.354C137.249 45.3259 137.189 44.0779 137.031 42.8418C136.914 41.5761 136.692 40.3223 136.366 39.0935C136.011 37.9179 135.579 36.6376 133.755 36.4363V46.5338H125.473V19.12C130.108 19.12 134.72 18.971 139.311 19.1804C141.897 19.2971 143.216 21.3102 143.934 23.6091C144.449 25.1547 144.615 26.7942 144.423 28.4113C144.23 30.0284 143.683 31.5834 142.821 32.9658C143.676 36.1867 144.435 39.0613 145.242 41.9279C145.314 42.1815 145.738 42.3305 146 42.5358V46.566ZM133.776 30.0146C135.857 29.3986 136.426 28.5974 136.265 26.7696C136.14 25.3041 135.397 24.4707 133.776 24.4345V30.0146Z" fill="#2A2F33"/>
<path id="Vector_2" d="M93.4993 18.9227H105.449C106.482 23.5367 107.495 28.0942 108.532 32.6477C109.569 37.2013 110.634 41.783 111.723 46.5096H103.356C103.049 45.1005 102.73 43.6229 102.391 42.0809H96.1297C95.8272 43.5182 95.5165 44.9999 95.1897 46.566H86.7173C88.9927 37.263 91.2534 28.0486 93.4993 18.9227ZM100.907 35.4741L99.5268 29.5919H99.0265C98.5827 31.4922 98.1429 33.3885 97.6588 35.458L100.907 35.4741Z" fill="#2A2F33"/>
<path id="Vector_3" d="M106.547 82.7205L108.467 74.1086C109.44 75.254 110.473 76.3466 111.562 77.3819C112.328 78.0502 113.401 78.4528 114.192 77.3134C114.983 76.174 114.515 75.2521 113.571 74.5153C112.764 73.8993 111.905 73.388 111.078 72.8122C106.712 69.7604 105.809 62.2075 109.464 58.3424C111.792 55.8663 114.886 55.4798 118.045 55.967C119.941 56.2609 121.773 56.9775 123.746 57.5372L121.85 65.8309C120.851 64.801 119.8 63.824 118.699 62.904C117.815 62.2356 116.682 61.8612 115.875 63.0731C115.068 64.2849 115.834 65.1103 116.794 65.7545C117.96 66.5597 119.215 67.1918 120.365 68.0131C124.476 70.9562 125.473 78.1186 122.172 81.9837C121.21 83.0918 119.95 83.9021 118.541 84.3188C114.394 85.3978 110.412 84.6893 106.547 82.7205Z" fill="#2A2F33"/>
<path id="Vector_4" d="M102.726 73.8832H97.6709V77.2128H104.848V84.1014H89.2993V56.595H104.772V63.4596H97.6023V66.918H102.726V73.8832Z" fill="#2A2F33"/>
<path id="Vector_5" d="M125.376 82.7084C126.025 79.721 126.626 76.9752 127.276 73.9798C127.813 74.7496 128.391 75.4901 129.007 76.1982C129.577 76.7596 130.209 77.2552 130.891 77.6758C131.665 78.1831 132.593 78.1629 132.981 77.3215C133.263 76.7135 133.279 75.6627 132.924 75.1554C132.372 74.3703 131.431 73.8349 130.6 73.2752C128.412 71.8643 126.85 69.6684 126.237 67.1412C125.625 64.6139 126.008 61.9484 127.308 59.6952C128.922 56.7964 132.743 55.2101 136.797 55.9468C138.686 56.2931 140.517 56.9534 142.526 57.513C141.869 60.444 141.264 63.1496 140.602 66.1087C139.977 65.3035 139.573 64.603 138.988 64.0957C138.194 63.3996 137.288 62.8416 136.309 62.445C135.877 62.288 135.002 62.7188 134.659 63.1455C134.393 63.4797 134.473 64.301 134.699 64.756C135.026 65.2518 135.464 65.6652 135.978 65.9638C136.587 66.3805 137.221 66.761 137.875 67.1032C142.898 69.9215 143.898 73.851 142.135 79.8901C141.372 82.495 139.347 83.9162 136.729 84.4437C132.735 85.2771 129.011 84.5886 125.376 82.7084Z" fill="#2A2F33"/>
<path id="Vector_6" d="M20.0635 57.058L25.3084 57.4123C26.8939 57.4123 28.4916 57.5291 30.069 57.4123C32.0016 57.2594 33.922 56.9091 35.8464 56.6434L41.8982 55.8381L47.143 53.8492L49.249 52.5488C51.8109 54.4008 52.0731 56.736 50.4593 59.4737C49.9467 59.5934 49.4489 59.7689 48.9747 59.9971C46.6427 61.4546 44.0849 62.2356 41.3979 62.7429C40.0688 63.0595 38.7583 63.4493 37.4723 63.9105L25.7723 64.7157C22.9482 64.446 20.0958 64.1239 17.2555 63.9105C13.3484 63.5866 9.5019 62.7445 5.81775 61.4062C4.68252 61.0858 3.52755 60.8397 2.36019 60.6695C1.60171 59.2241 0.657641 57.8512 0.141227 56.3172C-0.342911 54.8799 1.14178 53.0561 3.15902 52.1381C3.87898 52.5961 4.62681 53.0089 5.39816 53.3742C7.46785 54.2277 9.56982 55.0088 11.6597 55.814L20.0635 57.058Z" fill="#A44E04"/>
<path id="Vector_7" d="M71.9429 18.9227H87.3949V25.9161H80.2418V30.7716H85.3656V37.7327H80.2579V46.5177H71.9429V18.9227Z" fill="#2A2F33"/>
<path id="Vector_8" d="M80.1048 77.2369H87.4314V84.0813H71.9229V56.6031H80.1048V77.2369Z" fill="#2A2F33"/>
<path id="Vector_9" d="M113.151 18.9227H121.256V46.5539H113.151V18.9227Z" fill="#2A2F33"/>
<path id="Vector_10" d="M25.7239 64.7036L37.4239 63.8984C38.8602 64.9412 40.248 63.995 41.6399 63.7656C43.1367 63.52 44.6053 63.0932 46.0779 62.7429L46.3119 63.214C43.4811 65.2131 41.2259 67.919 39.772 71.0609C39.0538 72.627 38.0855 74.1489 38.723 76.0049C38.4567 77.0477 38.1945 78.0905 37.9161 79.1332C36.8712 79.25 35.8262 79.3788 34.7773 79.4835C31.7729 79.7868 28.7645 80.0847 25.7521 80.3773C25.7494 75.1514 25.74 69.9268 25.7239 64.7036Z" fill="#B85C02"/>
<path id="Vector_11" d="M13.1523 76.79C12.0792 73.3195 10.0377 70.5012 7.43546 67.997C6.00725 66.6201 4.80498 65.0056 3.4978 63.4998C4.81305 63.4113 6.16863 63.0731 7.43546 63.2784C11.3651 63.9226 15.2583 64.7761 19.1637 65.5451C20.3983 65.7867 21.6651 65.9195 22.8633 66.2819C23.5694 66.4953 24.7555 67.1757 24.7031 67.4494C24.5175 68.4278 23.9446 69.3538 23.408 70.2355C23.1579 70.6381 22.5043 70.8273 22.3025 71.242C21.2374 73.4202 20.2611 75.6426 19.2525 77.8489C19.4865 78.4448 19.7891 79.2178 20.0876 79.9948L15.2462 79.5922C15.2626 79.2664 15.3017 78.9422 15.3632 78.6219C15.8837 76.4961 15.5407 76.2022 13.1523 76.79Z" fill="#D37C37"/>
<path id="Vector_12" d="M18.3044 17.0908L22.8029 10.1257C23.1458 10.4317 23.4403 10.8665 23.8438 11.0074C24.4893 11.2369 25.2962 11.5147 25.861 11.3093C26.2403 11.1684 26.4743 10.2344 26.5146 9.63851C26.6115 8.24548 26.5469 6.82023 26.5469 5.43928C26.5469 3.73489 26.5469 2.03319 26.5469 0.334167C28.1607 2.15397 30.0125 3.83688 31.3883 5.82578C33.4055 8.68432 35.3098 11.6475 36.1207 15.1382C35.4107 15.0013 34.628 15.0134 34.0026 14.7034C32.5825 14.0068 31.243 13.1453 29.8632 12.3722C28.3261 11.5107 26.7123 12.179 26.5469 13.7532C26.5166 14.3514 26.5166 14.9507 26.5469 15.5488V19.1723L26.1435 19.575C24.34 20.3158 22.6294 19.9494 21.0318 19.0194C20.0715 18.4597 19.2082 17.739 18.3044 17.0908Z" fill="#FCA207"/>
<path id="Vector_13" d="M15.2424 79.5761L20.0838 79.9787L25.7603 80.3612C28.77 80.0633 31.7784 79.7653 34.7854 79.4674C35.8344 79.3627 36.8793 79.2339 37.9243 79.1171L39.5018 80.8363C39.2193 82.181 38.1744 82.6118 37.0125 82.793C34.9145 83.1231 32.8085 83.3928 30.6985 83.6666C24.4146 84.5077 18.0214 83.9243 11.9946 81.9596L13.5802 79.5439L15.2424 79.5761Z" fill="#FA743A"/>
<path id="Vector_14" d="M11.9986 81.9756C18.0254 83.9403 24.4185 84.5238 30.7025 83.6827C32.8125 83.4089 34.9185 83.1392 37.0164 82.809C38.1784 82.6279 39.2233 82.1971 39.5057 80.8524C40.7161 82.8654 40.361 84.3591 38.4568 85.5347C38.1431 85.7726 37.8551 86.0425 37.5974 86.3399C33.2644 86.6379 28.9354 87.1452 24.6023 87.1733C21.0116 87.2096 17.4169 86.7103 13.8222 86.4486C13.4187 85.9212 13.0153 85.3817 12.5594 84.8744C11.809 84.0169 11.1352 83.1472 11.9986 81.9756Z" fill="#FC5308"/>
<path id="Vector_15" d="M15.6579 93.3172C14.8954 92.9871 14.0965 92.7213 13.3703 92.3187C11.7202 91.4008 11.3531 90.3339 11.926 88.4013C13.9069 89.6333 16.1017 89.9474 18.3812 90.1809C24.0874 90.7692 29.8436 90.676 35.5277 89.9031C37.0205 89.7018 38.4003 88.6952 39.8366 88.0551C40.6435 90.0037 40.3691 91.0545 38.719 91.9846C37.8758 92.4637 36.9801 92.8421 36.1087 93.2649L26.1072 93.748L15.6579 93.3172Z" fill="#FC5308"/>
<path id="Vector_16" d="M25.7642 80.3773L20.0877 79.9948C19.7891 79.2178 19.4866 78.4448 19.2526 77.8489C20.2612 75.6426 21.2375 73.4202 22.3026 71.242C22.5044 70.8394 23.1579 70.6462 23.4081 70.2355C23.9447 69.3538 24.5176 68.4278 24.7031 67.4494C24.7556 67.1757 23.5695 66.4953 22.8634 66.2819C21.6531 65.9195 20.3983 65.7867 19.1638 65.5451C15.2584 64.7761 11.3651 63.9346 7.43554 63.2784C6.16872 63.0731 4.81313 63.4113 3.49789 63.4998C3.02182 62.5899 1.94057 61.9337 2.31175 60.6815C3.4791 60.8518 4.63408 61.0979 5.7693 61.4183C9.45345 62.7565 13.2999 63.5987 17.2071 63.9226C20.0312 64.1198 22.8836 64.4419 25.7239 64.7278C25.7373 69.9349 25.7508 75.1514 25.7642 80.3773Z" fill="#D17731"/>
<path id="Vector_17" d="M39.8527 88.0551C38.4164 88.6952 37.0286 89.7017 35.5439 89.9031C29.8598 90.676 24.1036 90.7692 18.3973 90.1809C16.1017 89.9473 13.9069 89.6333 11.9421 88.4013C12.5756 87.7531 13.2049 87.1049 13.8383 86.4607C17.4331 86.7224 21.0278 87.2217 24.6185 87.1854C28.9515 87.1452 33.2805 86.65 37.6136 86.352L39.8527 88.0551Z" fill="#FA743A"/>
<path id="Vector_18" d="M15.6578 93.3172L26.1232 93.748C26.1232 96.7998 26.1232 99.8516 26.1232 102.903C22.8392 103.258 19.8859 102.702 17.4935 100.15C15.6215 98.1606 15.1615 95.8899 15.6578 93.3172Z" fill="#D17731"/>
<path id="Vector_19" d="M26.1152 102.903C26.1152 99.8516 26.1152 96.7998 26.1152 93.748L36.1167 93.2649C37.0648 96.9165 34.5957 100.886 31.5376 101.804C29.7866 102.332 27.9308 102.545 26.1152 102.903Z" fill="#B85C02"/>
<path id="Vector_20" d="M49.2207 52.5246L47.1147 53.8251C45.9729 53.193 44.8957 52.3394 43.6733 51.9731C40.01 50.8739 36.274 50.0244 32.6067 48.9334C31.9491 48.7361 31.4891 47.8584 30.9404 47.2947L32.8165 44.8791C34.1539 46.0774 35.8179 46.8523 37.5973 47.1055C38.8969 47.3627 40.1713 47.7332 41.4059 48.2127C44.0969 49.1186 46.7718 50.0647 49.4749 50.9907L49.2207 52.5246Z" fill="#EE5006"/>
<path id="Vector_21" d="M38.6301 35.2768C39.5379 32.1646 40.4416 29.0524 41.3978 25.7671C44.2725 28.7 46.475 32.2207 47.853 36.086C46.6951 36.1102 45.5372 36.1464 44.3752 36.1585C43.8467 36.1585 43.1649 35.921 42.8099 36.1585C41.071 37.3019 39.8566 36.3437 38.6301 35.2768Z" fill="#F87E06"/>
<path id="Vector_22" d="M20.0636 57.058L11.6113 55.818C12.0148 54.2076 12.4182 52.5971 12.8217 50.9867L13.6286 49.3762C14.4532 49.516 15.2634 49.7303 16.0493 50.0164C18.0665 50.9504 20.0313 51.9972 22.0203 52.9997C21.3694 54.3552 20.7172 55.708 20.0636 57.058Z" fill="#EA1900"/>
<path id="Vector_23" d="M49.4547 50.9947C46.7718 50.0687 44.0969 49.1226 41.3858 48.2167C40.1578 47.7369 38.8902 47.3651 37.5974 47.1055C35.8222 46.85 34.1628 46.0752 32.8286 44.8791L34.5715 42.4634C35.5882 43.1559 36.5242 44.1423 37.6498 44.4764C39.2001 44.8618 40.7988 45.0165 42.3944 44.9354C43.8831 44.9113 45.2185 45.1488 46.2796 46.1875C46.7189 46.6766 47.3 47.0169 47.942 47.1612C48.5841 47.3056 49.2552 47.2467 49.8622 46.9928C49.7291 48.3133 49.5919 49.654 49.4547 50.9947Z" fill="#EF5A07"/>
<path id="Vector_24" d="M30.9526 47.2947C31.5013 47.8584 31.9612 48.7361 32.6188 48.9334C36.2862 50.0244 40.0221 50.8739 43.6854 51.9731C44.8958 52.3394 45.9851 53.1809 47.1268 53.8251L41.882 55.814C41.644 55.4114 41.4786 54.7591 41.1477 54.6384C38.3236 53.6439 35.5237 52.5931 32.6309 51.8764C31.1462 51.506 30.0408 50.9545 29.3105 49.646L30.9526 47.2947Z" fill="#EB4603"/>
<path id="Vector_25" d="M35.9876 28.8874L34.156 32.8651C32.4203 33.0511 30.6743 32.6236 29.2218 31.6573C27.3647 30.4168 25.1378 29.8485 22.9119 30.0469L23.7188 28.0338L24.5257 26.0208C27.023 25.8839 29.3388 26.7133 31.3601 27.9573C32.9053 28.9075 34.2568 29.5074 35.9876 28.8874Z" fill="#F56906"/>
<path id="Vector_26" d="M49.8622 46.9686C49.2553 47.2225 48.5841 47.2814 47.942 47.1371C47.3 46.9928 46.7189 46.6524 46.2796 46.1634C45.2306 45.1247 43.8831 44.8871 42.3944 44.9113C40.7989 44.9923 39.2001 44.8376 37.6498 44.4523C36.5242 44.1262 35.5882 43.1398 34.5715 42.4392L35.8706 40.5107C36.0695 40.5191 36.2651 40.5642 36.4476 40.6436C37.3141 41.3171 38.3274 41.7775 39.4055 41.9873C40.4835 42.1972 41.596 42.1506 42.6526 41.8514C43.6322 41.6661 44.6455 41.8698 45.4768 42.4191C46.0556 42.8644 46.7441 43.1458 47.4697 43.2336C48.1953 43.3215 48.9312 43.2126 49.6 42.9183C49.6807 44.2872 49.7735 45.6239 49.8622 46.9686Z" fill="#F36006"/>
<path id="Vector_27" d="M13.6286 49.3843L12.8217 50.9947C10.9376 50.7129 9.04544 50.4391 7.17343 50.1372C5.80978 49.9157 4.45419 49.654 3.09457 49.4125L3.03809 44.5127C3.99895 44.7182 4.94299 44.9954 5.86223 45.3421C8.61375 46.5902 11.3814 47.5363 14.4395 46.5499L13.6286 49.3843Z" fill="#EB3000"/>
<path id="Vector_28" d="M23.7188 28.0338L22.9119 30.0469L22.5085 30.8521L12.5716 30.8199C10.9134 30.8199 9.95317 29.4711 8.646 28.8068L11.6073 25.2075C11.8857 26.3791 12.4868 27.4903 13.7133 27.5587C17.0458 27.7359 20.3299 29.0927 23.7188 28.0338Z" fill="#F87506"/>
<path id="Vector_29" d="M26.543 19.1683V15.5448C28.9637 15.1704 30.8236 16.499 32.8166 17.5337C34.1278 18.2182 35.5843 18.6288 36.9762 19.1442L37.0972 23.1703C35.3946 23.5205 34.2246 22.4496 32.9013 21.6967C30.9164 20.5694 29.0484 19.0355 26.543 19.1683Z" fill="#FB8A05"/>
<path id="Vector_30" d="M29.3065 49.646C30.0367 50.9545 31.1422 51.506 32.6269 51.8764C35.5034 52.5931 38.3276 53.6439 41.1517 54.6383C41.4947 54.7591 41.648 55.4073 41.886 55.814L35.8343 56.6192C35.2089 55.2382 33.7484 55.1698 32.6632 55.1013C30.7499 54.9533 28.8988 54.356 27.261 53.358C27.9415 52.1422 28.6233 50.9048 29.3065 49.646Z" fill="#EC3B00"/>
<path id="Vector_31" d="M38.7312 76.0049C38.0938 74.1489 39.062 72.627 39.7802 71.0609C41.238 67.9156 43.4989 65.2081 46.3362 63.2099L46.1022 62.7389C44.6216 63.0892 43.153 63.5159 41.6643 63.7615C40.2764 63.991 38.8845 64.9372 37.4482 63.8944C38.7342 63.4332 40.0447 63.0434 41.3738 62.7268C44.0608 62.2195 46.6186 61.4385 48.9506 59.981C49.4248 59.7528 49.9226 59.5773 50.4353 59.4576C49.124 61.4707 48.0872 63.7092 46.4451 65.38C43.3144 68.5566 40.4378 71.8379 38.7312 76.0049Z" fill="#AC5502"/>
<path id="Vector_32" d="M26.5429 19.1683C29.0563 19.0355 30.9162 20.5694 32.9133 21.7088C34.2366 22.4617 35.4066 23.5326 37.1092 23.1824L36.5726 26.8059C35.4147 26.3751 34.2487 25.9684 33.1029 25.5135C30.5814 24.511 28.3705 22.4818 25.3406 23.1864V22.7838L26.1475 19.5629L26.5429 19.1683Z" fill="#F87E06"/>
<path id="Vector_33" d="M8.64604 28.7947C9.95321 29.4711 10.9134 30.8078 12.5716 30.8078L22.5085 30.84L21.7016 32.4504L20.4913 34.0609C19.1599 34.0609 17.8003 34.234 16.5052 34.0287C13.2534 33.5133 9.64659 34.0689 7.10083 31.2104L8.64604 28.7947Z" fill="#F56906"/>
<path id="Vector_34" d="M23.7187 28.0338C20.3297 29.0927 17.0457 27.7359 13.7132 27.5467C12.5028 27.4782 11.8856 26.367 11.6072 25.1954C12.1935 24.4949 12.7799 23.7957 13.3662 23.0978C14.2014 23.6293 15.0204 24.5754 15.8837 24.6197C18.9015 24.7767 21.8386 26.3388 24.9291 25.2115L24.5256 26.0167L23.7187 28.0338Z" fill="#F87E06"/>
<path id="Vector_35" d="M3.88916 38.8882L4.77675 36.0699C5.84185 36.7222 6.84644 37.781 7.98013 37.9501C11.3086 38.4453 14.6451 39.5606 18.0663 38.4896L17.6629 39.6975L16.4526 41.3079C15.5367 41.4408 14.6169 41.7105 13.7091 41.6864C10.2072 41.5978 6.85854 40.857 3.88916 38.8882Z" fill="#EE5006"/>
<path id="Vector_36" d="M13.6284 49.3843L14.4353 46.566C14.4353 46.4291 14.4353 46.2963 14.4353 46.1634C15.1212 46.1634 15.8797 45.9862 16.4848 46.2157C19.0467 47.1941 21.5643 48.2972 24.1019 49.3521L22.0282 53.0078C20.0392 52.0053 18.0744 50.9585 16.0572 50.0244C15.2687 49.7379 14.4558 49.5236 13.6284 49.3843Z" fill="#EB2200"/>
<path id="Vector_37" d="M24.1061 49.3521C21.5684 48.2972 19.0509 47.1941 16.489 46.2157C15.8838 45.9862 15.1253 46.1714 14.4395 46.1634C14.8429 45.3582 15.2464 44.5529 15.6498 43.7477L16.0532 42.9425C16.9408 43.1156 17.8486 43.2364 18.72 43.474C21.294 44.1745 23.6986 45.5756 26.4985 45.3582C25.6997 46.6868 24.9022 48.0181 24.1061 49.3521Z" fill="#EB3000"/>
<path id="Vector_38" d="M49.588 42.9385C48.9192 43.2327 48.1833 43.3416 47.4577 43.2538C46.7321 43.1659 46.0437 42.8845 45.4648 42.4392C44.6335 41.8899 43.6202 41.6862 42.6406 41.8716C41.584 42.1708 40.4715 42.2173 39.3935 42.0075C38.3154 41.7976 37.3021 41.3373 36.4356 40.6637C36.2531 40.5843 36.0575 40.5393 35.8586 40.5309L37.2546 38.0588C37.7831 38.3084 38.2995 38.5983 38.8482 38.8037C39.7075 39.1177 40.8937 39.8786 41.4101 39.5686C43.2458 38.4735 44.7224 39.3593 46.316 39.9229C47.3368 40.2853 48.2929 40.3255 48.8416 39.1177L49.588 42.9385Z" fill="#F56906"/>
<path id="Vector_39" d="M3.07837 49.4084C4.43799 49.65 5.79358 49.9117 7.15723 50.1331C9.04134 50.4351 10.9335 50.7089 12.8055 50.9907C12.4074 52.6011 12.004 54.2116 11.5952 55.822C9.50531 55.0168 7.40334 54.2357 5.33365 53.3822C4.56229 53.017 3.81447 52.6042 3.09451 52.1462L3.07837 49.4084Z" fill="#EB2200"/>
<path id="Vector_40" d="M18.0665 38.5057C14.6452 39.5968 11.3087 38.4614 7.98024 37.9662C6.84655 37.7971 5.84196 36.7584 4.77686 36.086L5.96703 33.2678C7.11282 34.0287 8.16582 35.16 9.42458 35.4861C12.6522 36.2914 15.9282 37.0241 19.2808 36.078V37.2858L18.0665 38.5057Z" fill="#EF5A07"/>
<path id="Vector_41" d="M26.4985 45.3541C23.6986 45.5716 21.294 44.1705 18.72 43.4699C17.8486 43.2324 16.9408 43.1116 16.0532 42.9385L16.4567 41.328L17.667 39.7176C18.4941 39.931 19.3333 40.1202 20.1482 40.3658C22.807 41.2073 25.4576 42.0809 28.1083 42.9425L26.4985 45.3541Z" fill="#EC3B00"/>
<path id="Vector_42" d="M36.9881 19.1683C35.5962 18.6329 34.1398 18.2222 32.8286 17.5579C30.8355 16.5232 28.9797 15.1946 26.5549 15.569C26.5247 14.9708 26.5247 14.3715 26.5549 13.7733C26.7203 12.1991 28.3341 11.5308 29.8713 12.3924C31.2511 13.1654 32.5905 14.027 34.0107 14.7235C34.636 15.0335 35.4187 15.0214 36.1288 15.1583L36.9881 19.1683Z" fill="#FD9405"/>
<path id="Vector_43" d="M24.929 25.2115C21.8386 26.3388 18.9015 24.7767 15.8837 24.6197C15.0203 24.5754 14.2013 23.6292 13.3662 23.0978L16.4405 19.5266C16.5454 20.9398 17.4249 21.6605 18.7119 21.8698C20.9107 22.2241 23.1256 22.4899 25.3325 22.7958V23.1985L24.929 25.2115Z" fill="#FB8A05"/>
<path id="Vector_44" d="M24.9291 25.2115L25.3325 23.1985C28.3624 22.4939 30.5774 24.5231 33.0949 25.5256C34.2407 25.9805 35.4066 26.3871 36.5645 26.8179C36.3655 27.5051 36.1705 28.1935 35.9795 28.8833C34.2487 29.5034 32.8972 28.8833 31.3601 27.9573C29.3428 26.7133 27.023 25.8839 24.5256 26.0208L24.9291 25.2115Z" fill="#F87506"/>
<path id="Vector_45" d="M19.2808 36.0901C15.9282 37.0362 12.636 36.3236 9.4246 35.4982C8.16584 35.1721 7.11284 34.0408 5.96704 33.2798L7.10073 31.2265C9.65456 34.081 13.2533 33.5254 16.5051 34.0448C17.8002 34.2501 19.1598 34.077 20.4912 34.077V34.8822L19.2808 36.0901Z" fill="#F36006"/>
<path id="Vector_46" d="M16.4527 41.328L16.0493 42.9385L15.6458 43.7437C11.0304 45.4266 7.14113 43.7437 3.45361 41.1227L3.88934 38.8882C6.86679 40.857 10.2073 41.5978 13.7093 41.7065C14.617 41.7347 15.5369 41.469 16.4527 41.328Z" fill="#EB4603"/>
<path id="Vector_47" d="M48.8536 39.1298C48.305 40.3376 47.3488 40.2772 46.3281 39.935C44.7143 39.3713 43.2578 38.4856 41.4221 39.5807C40.9057 39.8907 39.7196 39.1298 38.8602 38.8157C38.3115 38.6104 37.7951 38.3205 37.2666 38.0709L38.6303 35.2969C39.8406 36.3638 41.0509 37.31 42.8221 36.1827C43.1892 35.9451 43.859 36.1827 44.3875 36.1827C45.5494 36.1827 46.7073 36.1344 47.8652 36.1102C48.196 37.1046 48.5269 38.1152 48.8536 39.1298Z" fill="#F87506"/>
<path id="Vector_48" d="M21.7014 32.4625L22.5083 30.8521L22.9118 30.0469C25.1377 29.8484 27.3646 30.4168 29.2217 31.6573C30.6741 32.6236 32.4202 33.0511 34.1559 32.8651C33.739 33.6704 33.3221 34.4756 32.9052 35.2808C30.9444 35.8767 29.3266 34.9869 27.5877 34.2461C25.7117 33.453 23.6702 33.0423 21.7014 32.4625Z" fill="#F36006"/>
<path id="Vector_49" d="M28.1082 42.9385C25.4576 42.0769 22.8069 41.2032 20.1482 40.3618C19.3413 40.1041 18.4941 39.9269 17.667 39.7135L18.0704 38.5057L19.2808 37.2979C20.237 37.5757 21.1972 37.8334 22.1493 38.1273C24.7435 38.9325 27.1884 40.3537 30.0488 40.1403L28.1082 42.9385Z" fill="#EB4603"/>
<path id="Vector_50" d="M25.3324 22.7958C23.1256 22.4898 20.8945 22.2241 18.7118 21.8698C17.4248 21.6605 16.5413 20.9358 16.4404 19.5266L18.3044 17.111C19.2081 17.7592 20.0715 18.4798 21.0317 19.0395C22.6455 19.9695 24.34 20.3359 26.1434 19.5951L25.3324 22.7958Z" fill="#FD9405"/>
<path id="Vector_51" d="M30.0449 40.1162C27.1844 40.3497 24.7396 38.9325 22.1454 38.1031C21.1932 37.8092 20.233 37.5515 19.2769 37.2737V36.0659L20.4872 34.8581C22.5044 35.466 24.5983 35.9089 26.5389 36.7342C28.2697 37.4791 29.9118 37.8535 31.7232 37.2737L30.0449 40.1162Z" fill="#EE5006"/>
<path id="Vector_52" d="M31.715 37.2939C29.9036 37.8736 28.2615 37.4992 26.5307 36.7544C24.6023 35.929 22.4962 35.4861 20.479 34.8782V34.073L21.6893 32.4625C23.6582 33.0423 25.6996 33.4529 27.5757 34.2461C29.3145 34.9869 30.9324 35.8565 32.8931 35.2808L31.715 37.2939Z" fill="#EF5A07"/>
<path id="Vector_53" d="M3.45352 41.1227C7.14104 43.7437 11.0303 45.4266 15.6457 43.7437L14.4354 46.1594C14.4354 46.2922 14.4354 46.4251 14.4354 46.562C11.3773 47.5282 8.6096 46.562 5.85808 45.3541C4.93884 45.0075 3.9948 44.7302 3.03394 44.5248L3.45352 41.1227Z" fill="#EC3B00"/>
<path id="Vector_54" d="M26.5428 0.334167C26.5428 2.03587 26.5428 3.73757 26.5428 5.43928C26.5428 6.84036 26.6074 8.25755 26.5106 9.63851C26.4702 10.2344 26.2362 11.1684 25.857 11.3093C25.2921 11.5147 24.4852 11.2369 23.8397 11.0074C23.4363 10.8665 23.1418 10.4317 22.7988 10.1257C23.872 6.75179 24.9425 3.37656 26.0103 0L26.5428 0.334167Z" fill="#F9B803"/>
<path id="Vector_55" d="M27.2529 53.3742C28.8907 54.3721 30.7418 54.9694 32.6551 55.1175C33.7403 55.1859 35.2008 55.2544 35.8262 56.6353C33.9017 56.901 31.9813 57.2513 30.0488 57.4043C28.4713 57.5291 26.8736 57.4043 25.2881 57.4043L27.2529 53.3742Z" fill="#EB3000"/>
<path id="Vector_56" d="M15.2422 79.5761H13.584L13.1523 76.786C15.5408 76.1982 15.8837 76.48 15.3592 78.6018C15.2975 78.9234 15.2584 79.249 15.2422 79.5761Z" fill="#D17731"/>
</g>
</g>
</g>
<defs>
<clipPath id="clip0_1_1595">
<rect width="146" height="103" fill="white"/>
</clipPath>
</defs>
</svg>
