<svg width="14" height="13" viewBox="0 0 14 13" fill="none" xmlns="http://www.w3.org/2000/svg">
<g id="comment 1" clip-path="url(#clip0_70_1149)">
<g id="&#208;&#161;&#208;&#187;&#208;&#190;&#208;&#185; 2">
<g id="&#208;&#161;&#208;&#187;&#208;&#190;&#208;&#185; 1">
<path id="Vector" d="M1.91939 13.0001V12.7941C1.91939 11.9703 1.91707 11.1461 1.92209 10.3219C1.92209 10.199 1.89543 10.1538 1.76403 10.1468C0.833041 10.0941 0.0226285 9.26523 0.0129669 8.32245C-0.00287808 6.8012 0.00639703 5.27996 0.00523764 3.75872C0.00485118 3.18649 0.0210826 2.61349 0.000600086 2.03854C-0.0353409 0.941685 0.822606 -0.00967725 2.02064 7.43121e-05C4.04648 0.0164569 6.0727 0.00475506 8.09854 0.00475506C9.39551 0.00475506 10.6926 0.00475506 11.9898 0.00475506C12.7512 0.00475506 13.3397 0.319535 13.7374 0.979911C13.9237 1.28728 13.9983 1.63171 13.9987 1.98939C13.9987 4.0497 14.0033 6.11001 13.9987 8.17032C13.9956 9.32686 13.1558 10.1553 11.9929 10.1569C10.0449 10.16 8.09674 10.16 6.14845 10.1569C6.03279 10.1542 5.91949 10.1901 5.82614 10.2591C4.5807 11.1383 3.33358 12.0152 2.08479 12.8897C2.04035 12.9205 1.99552 12.9501 1.91939 13.0001ZM2.74217 11.4102C2.80864 11.3673 2.85308 11.3404 2.89675 11.3107C3.78948 10.6835 4.68195 10.0556 5.57417 9.4271C5.66354 9.36042 5.77221 9.32532 5.88334 9.32725C7.91871 9.33037 9.95408 9.33037 11.9894 9.32725C12.7137 9.32725 13.1778 8.86424 13.179 8.13483C13.1821 6.09922 13.1807 4.06335 13.1747 2.02723C13.1754 1.83179 13.1348 1.63845 13.0557 1.46008C12.8408 1.00449 12.452 0.830517 11.9616 0.831297C8.65814 0.834678 5.3544 0.835328 2.0504 0.833248C1.99707 0.833248 1.94335 0.833248 1.89002 0.837148C1.27593 0.877715 0.829563 1.32629 0.82763 1.94532C0.820674 4.03527 0.824152 6.12523 0.82763 8.21518C0.824723 8.45783 0.903627 8.69427 1.05139 8.8857C1.28829 9.19502 1.60519 9.33349 1.98895 9.32998C2.23513 9.32764 2.4813 9.32998 2.7441 9.32998L2.74217 11.4102Z" fill="#2A2F33"/>
<path id="Vector_2" d="M3.75708 2.93921H10.2415V3.74703H3.75708V2.93921Z" fill="#2A2F33"/>
<path id="Vector_3" d="M10.2373 5.51786H3.75439V4.71082H10.2373V5.51786Z" fill="#2A2F33"/>
<path id="Vector_4" d="M3.75317 7.28253V6.4751H10.2384V7.28253H3.75317Z" fill="#2A2F33"/>
</g>
</g>
</g>
<defs>
<clipPath id="clip0_70_1149">
<rect width="14" height="13" fill="white"/>
</clipPath>
</defs>
</svg>
