<svg width="6" height="12" viewBox="0 0 6 12" fill="none" xmlns="http://www.w3.org/2000/svg">
<g id="&#208;&#161;&#208;&#187;&#208;&#190;&#208;&#185; 2">
<g id="&#208;&#161;&#208;&#187;&#208;&#190;&#208;&#185; 1">
<path id="Vector" d="M4.42583 5.99289C4.34927 5.9242 4.30054 5.88888 4.26052 5.84374L0.235603 1.31639C0.105347 1.18739 0.0247828 1.00624 0.0110045 0.811358C-0.00277379 0.616481 0.0513182 0.423217 0.161803 0.272573C0.272288 0.121929 0.430472 0.0257605 0.602791 0.00447204C0.77511 -0.0168164 0.948003 0.0384506 1.08479 0.158547C1.12552 0.195345 1.1639 0.235348 1.19964 0.278256L5.72397 5.38061C6.09288 5.79468 6.09114 6.19895 5.72397 6.61498C4.2089 8.32362 2.69208 10.0316 1.17353 11.7389C1.10519 11.8282 1.01923 11.8981 0.922554 11.9431C0.825883 11.988 0.721203 12.0068 0.616936 11.9978C0.512668 11.9888 0.411722 11.9524 0.322219 11.8914C0.232716 11.8304 0.157154 11.7466 0.101612 11.6467C0.0276608 11.5144 -0.00743518 11.3592 0.00131185 11.2031C0.0100589 11.047 0.0622039 10.8981 0.150335 10.7773C0.193839 10.7184 0.242562 10.6655 0.291286 10.6105L4.25878 6.14596C4.30054 6.10082 4.35101 6.06354 4.42583 5.99289Z" fill="#2A2F33"/>
</g>
</g>
</svg>
