<svg width="39" height="45" viewBox="0 0 39 45" fill="none" xmlns="http://www.w3.org/2000/svg">
<g id="fire 1" clip-path="url(#clip0_1_669)">
<g id="&#208;&#161;&#208;&#187;&#208;&#190;&#208;&#185; 2">
<g id="&#208;&#161;&#208;&#187;&#208;&#190;&#208;&#185; 1">
<path id="Vector" d="M4.19595 45C3.74088 44.2864 3.23574 43.5991 2.8421 42.8536C2.25737 41.7739 1.73174 40.6631 1.26754 39.5262C0.865029 38.5418 0.558696 37.5206 0.352835 36.477C0.143501 35.3485 0.0945799 34.1892 0.0274562 33.0402C-0.0135003 32.2703 -0.00780135 31.4987 0.0445215 30.7296C0.105957 29.7663 0.18332 28.7986 0.339183 27.8468C0.475689 26.9264 0.689577 26.0192 0.978565 25.1349C1.36879 24.0019 1.79429 22.8619 2.37565 21.8201C2.98699 20.7047 3.72286 19.6626 4.56911 18.7138C5.07994 18.1541 5.87404 17.77 6.61695 17.5352C7.07203 17.3904 7.46453 17.7951 7.5692 18.4175C7.72431 19.2269 7.95279 20.0206 8.25181 20.7885C8.54534 21.5955 8.82066 22.4493 9.29849 23.1401C9.86734 23.9506 10.608 24.6573 11.3577 25.3139C11.7331 25.6433 12.2895 25.7698 12.7753 25.9613C12.8253 25.9807 13.0256 25.8086 13.0278 25.7208C13.054 24.9343 13.0278 24.1466 13.0597 23.3601C13.0904 22.4607 13.1325 21.5602 13.2099 20.6631C13.2838 19.815 13.3839 18.9658 13.5227 18.1245C13.7002 17.0496 13.8436 15.9587 14.1553 14.9191C14.537 13.6768 14.9988 12.4607 15.5376 11.2782C16.0463 10.1584 16.616 9.06738 17.2441 8.01014C17.7003 7.23376 18.2201 6.49674 18.7982 5.8067C19.9097 4.47073 21.0474 3.14389 22.2591 1.89341C22.9246 1.20947 23.738 0.656614 24.5231 0.0912219C24.6298 0.0334042 24.7489 0.00209057 24.8702 -9.12197e-05C24.9916 -0.00227301 25.1117 0.0247407 25.2205 0.0786829C25.5401 0.298684 25.8951 0.59392 26.0168 0.935891C26.1556 1.31206 25.9941 1.7874 26.0646 2.20232C26.233 3.1815 26.4059 4.16866 26.6801 5.11934C26.9809 6.13256 27.3535 7.12299 27.795 8.08309C28.0954 8.73968 28.5596 9.31989 28.9509 9.93544C29.3958 10.6331 29.8179 11.3466 30.2911 12.0249C30.6939 12.6028 31.1706 13.1272 31.5881 13.6948C32.4084 14.8097 33.2355 15.9199 34.0091 17.0655C34.6216 17.9662 35.1885 18.8972 35.7077 19.8549C36.148 20.6733 36.4972 21.5419 36.8613 22.3991C37.2405 23.286 37.5997 24.1801 37.9387 25.0813C38.0785 25.4603 38.1847 25.8509 38.2561 26.2486C38.4359 27.2061 38.6611 28.1625 38.7373 29.1303C38.8796 30.9234 39.0639 32.7312 38.9729 34.5197C38.9057 35.8443 38.4871 37.1643 38.1207 38.457C37.8378 39.5036 37.4541 40.5202 36.9751 41.4925C36.4062 42.6017 35.6724 43.623 35.0148 44.6843C34.9629 44.786 34.9199 44.892 34.8863 45.0012H25.8985C25.9463 44.6888 26.0396 44.3754 26.0316 44.0642C26.0347 43.3753 25.9868 42.6872 25.8883 42.0055C25.7358 41.1323 25.58 40.2364 25.2455 39.4259C24.8086 38.3692 24.2364 37.3627 23.6527 36.3801C23.1317 35.5126 22.465 34.7329 21.9462 33.8654C21.5525 33.2111 21.2852 32.4805 20.9075 31.6631C20.4467 32.4611 19.9404 33.1678 19.6162 33.943C19.1645 34.9796 18.8129 36.0572 18.5661 37.1609C18.3727 38.0968 18.4762 39.0908 18.3682 40.0506C18.3056 40.6137 18.6048 41.3136 17.8971 41.7023L17.7481 41.8425L17.607 41.8482H16.6263L16.3294 41.8094L16.0313 41.6624C14.9278 41.2828 14.3191 40.3891 13.6593 39.4293C13.4135 40.2204 13.1575 41.0161 13.1109 41.8231C13.0506 42.8775 13.1553 43.9422 13.1883 45.0023L4.19595 45Z" fill="#FC7E00"/>
<path id="Vector_2" d="M13.1826 45C13.1497 43.9399 13.045 42.8752 13.1053 41.8208C13.1519 41.0137 13.4079 40.2181 13.6536 39.427C14.3135 40.3868 14.9222 41.2805 16.0257 41.6601L16.3238 41.8071L16.6207 41.8459H17.6014L17.7425 41.8402L17.8972 41.7022C18.6049 41.3135 18.3057 40.6136 18.3682 40.0505C18.482 39.0907 18.3682 38.0967 18.5662 37.1609C18.8112 36.0577 19.1609 34.9805 19.6106 33.9441C19.9348 33.1644 20.4411 32.4622 20.9019 31.6642C21.2796 32.4816 21.5469 33.2122 21.9406 33.8665C22.4616 34.734 23.1283 35.5137 23.6471 36.3812C24.2364 37.3638 24.8087 38.3703 25.2399 39.427C25.5744 40.2375 25.7302 41.1369 25.8827 42.0066C25.9812 42.6883 26.0291 43.3764 26.026 44.0653C26.034 44.3765 25.9407 44.6899 25.8929 45.0023L13.1826 45Z" fill="#F41F00"/>
</g>
</g>
</g>
<defs>
<clipPath id="clip0_1_669">
<rect width="39" height="45" fill="white"/>
</clipPath>
</defs>
</svg>
