<svg width="16" height="13" viewBox="0 0 16 13" fill="none" xmlns="http://www.w3.org/2000/svg">
<path id="Vector" fill-rule="evenodd" clip-rule="evenodd" d="M15 6.89684C15 7.54753 14.4484 8.07665 13.7697 8.07665H10.6695C11.719 9.31477 11.5722 10.4319 11.1455 11.4835C10.8711 11.7035 10.3621 12 9.78528 12C9.78192 12 9.77856 12 9.77464 12C8.8904 12 8.74144 11.3427 8.62104 10.8136C8.45696 10.2405 8.23408 9.11016 6.67112 8.07665H5.92184V1.77114L6.19344 1.69798C7.72616 1.35477 8.84224 1 10.2098 1H12.1294C12.8076 1 13.3598 1.52858 13.3598 2.17926C13.3598 2.33217 13.329 2.47902 13.273 2.61378C13.7954 2.75019 14.3566 3.20891 14.3566 3.75179C14.3566 3.9047 14.1494 4.28916 14.0934 4.18631C14.6158 4.32272 15 4.78144 15 5.32432C15 5.62628 14.8818 5.90184 14.6864 6.11086C14.8818 6.31932 15 6.59543 15 6.89684ZM3.87112 8.86264H1.41048C1.18368 8.86264 1 8.68663 1 8.86539V1.39272C1 1.17546 1.18368 1 1.41048 1H3.87112C4.54984 1 5.102 1.52858 5.102 2.17926V7.68338C5.102 8.33352 4.54984 8.86264 3.87112 8.86264ZM3.05128 2.57253C2.82448 2.57253 2.6408 2.74854 2.6408 3.32662C2.6408 3.18251 2.82448 3.35852 3.05128 3.35852C3.27752 3.35852 3.4612 3.18251 3.4612 3.32662C3.4612 2.74854 3.27752 2.57253 3.05128 2.57253Z" stroke="#2A2F33" stroke-width="0.347222"/>
</svg>
